<svg width="24" height="24" viewBox="0 0 24 24" fill="none" xmlns="http://www.w3.org/2000/svg">
<g clip-path="url(#clip0_8_113)">
<rect width="24" height="24" rx="4" fill="#ECF0FF"/>
<path d="M-18.1952 9.50257C-21.5825 3.63548 -19.0364 -3.38054 -12.0747 -7.39988C-5.11301 -11.4192 1.48996 -10.0941 5.029 -3.96429L-2.02027 0.105606C-3.33477 -2.17117 -5.85128 -2.5864 -8.52212 -1.04439C-11.4119 0.624019 -12.4925 2.99926 -11.2538 5.14469C-10.1162 7.11498 -8.55307 7.49682 -5.99822 6.66395L-0.556751 4.86503C5.9053 2.7104 10.2563 3.87624 13.2139 8.999C16.8288 15.2601 14.2759 22.1633 6.83255 26.4607C-0.391852 30.6317 -7.32659 29.4398 -10.8403 23.3538L-3.79108 19.2839C-2.42602 21.6482 0.0837134 21.9506 3.23618 20.1305C6.43243 18.2852 7.71342 15.8526 6.52531 13.7947C5.48888 11.9996 4.12612 11.5604 1.72791 12.3612L-3.80113 14.2107C-10.2632 16.3653 -15.1364 14.8005 -18.1952 9.50257Z" fill="#465FF1" fill-opacity="0.5"/>
</g>
<defs>
<clipPath id="clip0_8_113">
<rect width="24" height="24" rx="4" fill="white"/>
</clipPath>
</defs>
</svg>
